#!OML:ASF H:\Terrain\Patient Classification 1\Terrain2\Thursday\justin.ASF
:FULLY-SPECIFIED
:DEGREES
3261
root 9.46711 17.9002 -0.376519 160.91 -100.024 189.908
lowerback 16.2759 -1.44407 -6.16233
upperback 5.40834 -3.02586 2.81112
thorax -2.85015 -1.68459 7.04958
lowerneck -15.4986 -0.751806 -7.9533
upperneck 34.7872 -1.08993 3.77478
head 14.6715 -1.37495 2.68177
rclavicle 1.2921e-015 -1.19271e-014
rhumerus -32.4107 -4.15475 -78.3475
rradius 48.5809
rwrist -15.4209
rhand -20.9741 12.1709
rfingers 7.12502
rthumb 5.39931 -17.7404
lclavicle 1.2921e-015 -1.19271e-014
lhumerus -29.5274 -4.9332 88.5187
lradius 37.4558
lwrist 4.9793
lhand -17.7456 22.5073
lfingers 7.12502
lthumb 8.51588 52.3156
rfemur -88.1528 -19.7011 25.5783
rtibia 118.142
rfoot -16.6895 5.17686
rtoes -1.12046
lfemur 19.1452 -0.10677 -25.0596
ltibia 5.24792e-014
lfoot -0.932715 -9.69721
ltoes 20.7667
3262
root 9.39606 17.9055 -0.383266 162.473 -100.113 188.448
lowerback 16.3084 -1.4627 -6.01463
upperback 5.43136 -3.02726 2.90216
thorax -2.84587 -1.68723 7.06446
lowerneck -15.3453 -0.73226 -8.04064
upperneck 34.6975 -1.11869 3.97985
head 14.5971 -1.36826 2.77536
rclavicle 2.74323e-014 -1.82882e-014
rhumerus -32.5097 -4.18915 -78.381
rradius 48.4618
rwrist -15.3853
rhand -20.8648 12.5219
rfingers 7.12502
rthumb 5.50486 -17.3866
lclavicle 2.74323e-014 -1.82882e-014
lhumerus -29.4174 -4.79538 88.5358
lradius 37.3694
lwrist 4.99166
lhand -18.3164 22.7214
lfingers 7.12502
lthumb 7.96498 52.5513
rfemur -88.2563 -19.1149 25.7889
rtibia 116.752
rfoot -15.5681 5.05416
rtoes 3.04375
lfemur 19.2526 -0.152456 -24.7843
ltibia 2.22639e-014
lfoot -1.50118 -9.86613
ltoes 17.1735
3263
root 9.3279 17.9217 -0.39086 163.863 -100.229 187.073
lowerback 16.46 -1.47405 -5.80824
upperback 5.48415 -3.01951 2.9544
thorax -2.88062 -1.6849 7.00803
lowerneck -15.3702 -0.775185 -8.16578
upperneck 34.734 -1.23066 4.22167
head 14.6302 -1.40018 2.88102
rclavicle 4.53229e-014 -4.6118e-014
rhumerus -32.5868 -4.19454 -78.4359
rradius 48.3437
rwrist -15.3432
rhand -20.4397 12.5078
rfingers 7.12502
rthumb 5.91535 -17.3896
lclavicle 4.53229e-014 -4.6118e-014
lhumerus -29.265 -4.89581 88.5917
lradius 37.2729
lwrist 5.06425
lhand -18.3901 22.7079
lfingers 7.12502
lthumb 7.8938 52.5405
rfemur -88.2833 -18.7937 25.7881
rtibia 115.579
rfoot -14.2294 5.43805
rtoes 8.43992
lfemur 19.4877 -0.204157 -24.5435
ltibia 9.54166e-015
lfoot -2.23645 -9.95682
ltoes 11.3399
3264
root 9.25305 17.9138 -0.394823 163.175 -100.358 187.754
lowerback 16.6227 -1.38829 -5.87698
upperback 5.52714 -2.93017 2.88667
thorax -2.93554 -1.64016 6.96708
lowerneck -15.3969 -0.871743 -8.3234
upperneck 34.8441 -1.4126 4.444
head 14.7058 -1.47244 2.97464
rclavicle 2.40529e-014 -1.19271e-014
rhumerus -32.715 -4.24502 -78.5079
rradius 48.1519
rwrist -15.3414
rhand -20.0522 12.1805
rfingers 7.12502
rthumb 6.28941 -17.7062
lclavicle 2.40529e-014 -1.19271e-014
lhumerus -29.1857 -5.32231 88.6877
lradius 37.2963
lwrist 5.18602
lhand -17.8416 22.4981
lfingers 7.12502
lthumb 8.42324 52.3101
rfemur -88.187 -18.4843 25.6703
rtibia 114.419
rfoot -13.0941 5.09544
rtoes 6.70299
lfemur 19.8334 -0.157127 -24.6683
ltibia 6.99722e-014
lfoot -2.70806 -10.09
ltoes 7.37766
3265
root 9.18128 17.9006 -0.403922 164.248 -100.421 186.747
lowerback 16.7374 -1.3697 -5.7544
upperback 5.54072 -2.8916 2.93187
thorax -2.99249 -1.61959 6.94503
lowerneck -15.3052 -0.917029 -8.39634
upperneck 34.7738 -1.49077 4.52473
head 14.6601 -1.50198 3.00632
rclavicle 1.33186e-014 6.36111e-015
rhumerus -32.8405 -4.17241 -78.6683
rradius 48.0035
rwrist -15.3076
rhand -19.955 11.8337
rfingers 7.12502
rthumb 6.38324 -18.0501
lclavicle 1.33186e-014 6.36111e-015
lhumerus -29.1216 -5.42748 88.7314
lradius 37.276
lwrist 5.15513
lhand -17.5182 22.3425
lfingers 7.12502
lthumb 8.73533 52.1418
rfemur -87.9768 -17.9103 26.1181
rtibia 113.15
rfoot -12.1168 3.8703
rtoes 2.35611
lfemur 19.9504 -0.159765 -24.3965
ltibia 2.8625e-014
lfoot -2.44864 -10.2776
ltoes 8.39981
3266
root 9.11405 17.8925 -0.417026 165.416 -100.532 185.613
lowerback 16.9226 -1.36355 -5.59335
upperback 5.57786 -2.86992 2.91235
thorax -3.06483 -1.6072 6.83677
lowerneck -15.1617 -0.976015 -8.15881
upperneck 34.568 -1.59577 4.37235
head 14.5376 -1.52785 2.87809
rclavicle -2.28602e-015 4.77083e-015
rhumerus -32.994 -4.09597 -78.9051
rradius 47.8628
rwrist -15.1263
rhand -19.9733 11.7743
rfingers 7.12502
rthumb 6.36561 -18.11
lclavicle -2.28602e-015 4.77083e-015
lhumerus -29.0218 -5.28547 88.6469
lradius 37.2106
lwrist 4.89059
lhand -17.8312 22.5981
lfingers 7.12502
lthumb 8.43321 52.4097
rfemur -87.7128 -17.5229 26.3193
rtibia 112.149
rfoot -11.0773 3.44301
rtoes 3.17431
lfemur 20.055 -0.208836 -24.1086
ltibia 2.06736e-014
lfoot -1.59539 -10.2297
ltoes 13.9681
3267
root 9.03628 17.8819 -0.420027 164.368 -100.598 186.743
lowerback 16.9097 -1.24278 -5.65245
upperback 5.66698 -2.72814 2.73583
thorax -2.99186 -1.54147 6.65031
lowerneck -15.0445 -1.08113 -7.93115
upperneck 34.3832 -1.79738 4.31648
head 14.4396 -1.58348 2.77756
rclavicle -2.71341e-014 3.73715e-014
rhumerus -33.0941 -4.32617 -79.0658
rradius 47.6369
rwrist -15.1371
rhand -19.9107 12.0607
rfingers 7.12502
rthumb 6.42607 -17.8218
lclavicle -2.71341e-014 3.73715e-014
lhumerus -28.877 -5.34397 88.5374
lradius 37.2015
lwrist 4.63984
lhand -18.1588 22.6093
lfingers 7.12502
lthumb 8.11707 52.4334
rfemur -87.5768 -17.377 25.9117
rtibia 111.536
rfoot -10.2372 3.90921
rtoes 6.84173
lfemur 20.269 -0.0847058 -24.3174
ltibia -2.22639e-014
lfoot -1.19157 -9.9372
ltoes 17.9738
3268
root 8.95668 17.8693 -0.413224 161.975 -100.768 189.427
lowerback 16.6773 -1.21132 -5.97778
upperback 5.70947 -2.73234 2.52064
thorax -2.81704 -1.55037 6.591
lowerneck -14.9721 -1.12321 -7.99837
upperneck 34.2137 -1.89394 4.49632
head 14.3556 -1.60206 2.84464
rclavicle 1.83876e-014 -7.15625e-015
rhumerus -33.2111 -4.28562 -79.2859
rradius 47.6151
rwrist -15.1838
rhand -19.8774 11.7648
rfingers 7.12502
rthumb 6.45822 -18.1167
lclavicle 1.83876e-014 -7.15625e-015
lhumerus -28.8487 -5.48628 88.528
lradius 37.3514
lwrist 4.86247
lhand -18.3475 22.6188
lfingers 7.12502
lthumb 7.93493 52.4498
rfemur -87.7135 -17.2903 25.2885
rtibia 110.999
rfoot -9.72334 4.11655
rtoes 7.47772
lfemur 20.3382 0.0398405 -24.9365
ltibia 6.36111e-015
lfoot -1.62038 -9.77645
ltoes 16.1437
3269
root 8.8866 17.8481 -0.412809 159.97 -101.067 191.676
lowerback 16.6882 -1.23118 -6.26297
upperback 5.70287 -2.81062 2.30155
thorax -2.81412 -1.58753 6.53263
lowerneck -14.9991 -1.17431 -8.21164
upperneck 34.1744 -2.00441 4.79989
head 14.3584 -1.6336 2.98941
rclavicle -8.05078e-015 -7.95139e-015
rhumerus -33.3997 -3.99227 -79.5593
rradius 47.6466
rwrist -15.0987
rhand -19.9382 11.1141
rfingers 7.12502
rthumb 6.39943 -18.7692
lclavicle -8.05078e-015 -7.95139e-015
lhumerus -28.9147 -5.7802 88.6332
lradius 37.5443
lwrist 5.30892
lhand -19.002 23.0461
lfingers 7.12502
lthumb 7.30323 52.9001
rfemur -87.7305 -17.2702 24.7336
rtibia 110.426
rfoot -9.35434 4.29766
rtoes 6.94687
lfemur 20.4314 0.0442584 -25.5369
ltibia 0
lfoot -2.19739 -9.71941
ltoes 11.7964
3270
root 8.81555 17.824 -0.419083 159.8 -101.176 191.872
lowerback 16.9306 -1.17831 -6.22901
upperback 5.73666 -2.75425 2.26405
thorax -2.91925 -1.55704 6.47504
lowerneck -15.052 -1.24033 -8.45182
upperneck 34.1616 -2.09239 5.01209
head 14.3782 -1.67098 3.10587
rclavicle 5.86415e-015 -1.43125e-014
rhumerus -33.3495 -3.88918 -79.609
rradius 47.2891
rwrist -15.1592
rhand -19.6445 10.9973
rfingers 7.12502
rthumb 6.68304 -18.8772
lclavicle 5.86415e-015 -1.43125e-014
lhumerus -28.8818 -5.84915 88.7571
lradius 37.5326
lwrist 5.30561
lhand -18.8711 22.3719
lfingers 7.12502
lthumb 7.42953 52.2214
rfemur -87.3274 -17.1038 24.6285
rtibia 109.776
rfoot -9.02831 4.48979
rtoes 6.82659
lfemur 20.6998 0.095096 -25.6139
ltibia -1.11319e-014
lfoot -2.59038 -9.6874
ltoes 9.50042
